<svg width="263" height="120" viewBox="0 0 263 120" fill="none" xmlns="http://www.w3.org/2000/svg">
<rect width="13.2641" height="47.7419" fill="white"/>
<rect x="67.4258" width="13.2641" height="47.7419" fill="white"/>
<rect y="15.4575" width="15.4574" height="80.6897" transform="rotate(-90 0 15.4575)" fill="white"/>
<rect width="13.2641" height="47.7419" transform="matrix(1 0 0 -1 0 120)" fill="white"/>
<rect width="13.2641" height="47.7419" transform="matrix(1 0 0 -1 67.4258 120)" fill="white"/>
<rect width="15.4574" height="80.6897" transform="matrix(-4.17653e-08 1 1 4.57481e-08 0 104.542)" fill="white"/>
<rect y="68.3606" width="15.4574" height="80.6897" transform="rotate(-90 0 68.3606)" fill="white"/>
<path d="M97.6218 5.07585C96.5516 5.10643 95.298 5.22873 94.2278 5.90144C94.136 5.96259 94.0137 5.90144 94.0137 5.80971V5.35105C94.0137 5.19816 93.8914 5.07585 93.7691 5.07585H89.2436C89.0908 5.07585 88.999 5.19816 88.999 5.35105V21.0067C88.999 21.129 89.0908 21.2513 89.2436 21.2513H94.0749C94.1972 21.2513 94.3195 21.129 94.3195 21.0067V11.8946C94.3195 11.2831 94.3195 10.7632 94.5947 10.2129C94.6864 9.99881 95.0228 9.54015 95.6037 9.41784C96.1236 9.29553 97.0103 9.35668 97.4384 9.38726C97.5913 9.38726 97.7136 9.29553 97.7136 9.14264L97.8665 5.35105C97.897 5.19816 97.7747 5.07585 97.6218 5.07585Z" fill="white"/>
<path d="M115.514 5.07585H110.989C110.867 5.07585 110.744 5.19816 110.744 5.35105V5.84028C110.744 5.93202 110.622 5.99317 110.53 5.93202C109.246 5.19816 107.778 4.83123 106.28 4.83123C101.541 4.83123 97.7184 8.62283 97.7184 13.3012C97.7184 17.9489 101.541 21.7405 106.28 21.7405C107.778 21.7405 109.246 21.3736 110.53 20.6397C110.622 20.5786 110.744 20.6397 110.744 20.7621V20.9761C110.744 21.129 110.867 21.2513 110.989 21.2513H115.514C115.667 21.2513 115.759 21.129 115.759 20.9761V5.35105C115.759 5.19816 115.667 5.07585 115.514 5.07585ZM107.044 17.1845C104.904 17.1845 103.131 15.4416 103.131 13.3012C103.131 11.1607 104.904 9.41784 107.044 9.41784C109.215 9.41784 110.744 11.1607 110.744 13.3012C110.744 15.4416 109.215 17.1845 107.044 17.1845Z" fill="white"/>
<path d="M130.477 6.51299C130.355 6.39068 130.233 6.29894 130.11 6.20721C130.08 6.17664 126.533 3.39409 122.894 5.90144C122.802 5.96259 122.68 5.90144 122.68 5.77913V5.35105C122.68 5.19816 122.558 5.07585 122.435 5.07585H117.91C117.757 5.07585 117.665 5.19816 117.665 5.35105V21.0067C117.665 21.129 117.757 21.2513 117.91 21.2513H122.741C122.863 21.2513 122.986 21.129 122.986 21.0067V12.1392C122.986 11.5277 122.986 10.7632 123.261 10.2129C123.475 9.69304 124.209 9.38726 125.126 9.38726C125.615 9.38726 126.013 9.50957 126.319 9.72361C126.502 9.8765 126.655 10.06 126.777 10.3046C127.022 10.855 127.053 11.5583 127.053 12.1392V21.0067C127.053 21.129 127.175 21.2513 127.328 21.2513H132.128C132.281 21.2513 132.404 21.129 132.404 21.0067V11.8946C132.404 9.50957 132.128 8.16417 130.477 6.51299Z" fill="white"/>
<path d="M143.323 13.3012C143.293 13.2094 143.293 13.1177 143.323 13.026L147.879 5.47335C147.971 5.32047 147.849 5.07585 147.665 5.07585H142.406C142.314 5.07585 142.222 5.137 142.192 5.22873L139.593 10.06C139.47 10.3046 139.103 10.2129 139.103 9.93765V0.24462C139.103 0.12231 138.981 0 138.859 0H134.333C134.18 0 134.089 0.12231 134.089 0.24462V21.0067C134.089 21.129 134.18 21.2513 134.333 21.2513H138.859C138.981 21.2513 139.103 21.129 139.103 21.0067V16.3895C139.103 16.1449 139.47 16.0531 139.593 16.2672L142.192 21.129C142.222 21.1901 142.314 21.2513 142.406 21.2513H147.665C147.849 21.2513 147.971 21.0373 147.879 20.8538L143.323 13.3012Z" fill="white"/>
<path d="M153.61 5.07585H149.085C148.932 5.07585 148.84 5.19816 148.84 5.35105V21.0067C148.84 21.129 148.932 21.2513 149.085 21.2513H153.61C153.732 21.2513 153.855 21.129 153.855 21.0067V5.35105C153.855 5.19816 153.732 5.07585 153.61 5.07585ZM153.61 0H149.085C148.932 0 148.84 0.12231 148.84 0.24462V3.54698C148.84 3.69986 148.932 3.82217 149.085 3.82217H153.61C153.732 3.82217 153.855 3.69986 153.855 3.54698V0.24462C153.855 0.12231 153.732 0 153.61 0Z" fill="white"/>
<path d="M168.55 6.51299C168.427 6.39068 168.305 6.29894 168.183 6.20721C168.152 6.17664 164.605 3.39409 160.966 5.90144C160.875 5.96259 160.752 5.90144 160.752 5.77913V5.35105C160.752 5.19816 160.63 5.07585 160.508 5.07585H155.982C155.829 5.07585 155.738 5.19816 155.738 5.35105V21.0067C155.738 21.129 155.829 21.2513 155.982 21.2513H160.814C160.936 21.2513 161.058 21.129 161.058 21.0067V12.1392C161.058 11.5277 161.058 10.7632 161.333 10.2129C161.547 9.69304 162.281 9.38726 163.199 9.38726C163.688 9.38726 164.085 9.50957 164.391 9.72361C164.575 9.8765 164.728 10.06 164.85 10.3046C165.094 10.855 165.125 11.5583 165.125 12.1392V21.0067C165.125 21.129 165.247 21.2513 165.4 21.2513H170.201C170.354 21.2513 170.476 21.129 170.476 21.0067V11.8946C170.476 9.50957 170.201 8.16417 168.55 6.51299Z" fill="white"/>
<path d="M189.299 5.137H184.804C184.651 5.137 184.529 5.25931 184.529 5.38162V5.87086C184.529 5.96259 184.437 6.02375 184.345 5.99317C183.061 5.25931 181.593 4.86181 180.095 4.86181C175.386 4.86181 171.564 8.6534 171.564 13.3012C171.564 17.9489 175.386 21.7405 180.095 21.7405C181.593 21.7405 183.03 21.3736 184.315 20.6397C184.406 20.6092 184.498 20.6397 184.529 20.7315C184.651 21.4348 184.529 22.0769 184.162 22.6273C183.581 23.4223 182.48 23.9421 181.135 24.0338C179.055 24.1561 177.465 22.8413 176.732 22.1075C176.64 22.0157 176.517 21.9851 176.395 22.0769L173.093 24.6454C172.94 24.7371 172.94 24.9206 173.062 25.0429C176.517 28.1924 179.545 28.3452 180.768 28.3452C180.859 28.3452 180.921 28.3452 180.982 28.3452H181.135C186.547 28.3452 189.543 25.2875 189.543 19.7224V18.1018V5.38162C189.543 5.25931 189.452 5.137 189.299 5.137ZM180.859 17.1845C180.829 17.1845 180.798 17.1845 180.768 17.1845H180.737C178.627 17.1233 176.946 15.411 176.946 13.3012C176.946 11.1913 178.719 9.44842 180.859 9.44842C182.511 9.44842 183.734 10.4575 184.284 11.9558C184.468 12.3838 184.529 12.8425 184.529 13.3012C184.529 15.4416 183.03 17.1845 180.859 17.1845Z" fill="white"/>
<path d="M108.222 36.9762C105.025 36.9762 101.894 37.759 99.0894 39.3245C98.9589 39.455 98.698 39.3245 98.698 39.1288V27.1914C98.698 26.8653 98.4371 26.6696 98.1762 26.6696H88.5219C88.1957 26.6696 88 26.8653 88 27.1914V71.4186C88 71.7447 88.1957 72.0056 88.5219 72.0056H98.1762C98.4371 72.0056 98.698 71.7447 98.698 71.4186V70.9619C98.698 70.701 98.9589 70.5705 99.0894 70.701C101.894 72.2666 105.025 73.0494 108.222 73.0494C118.268 73.0494 126.487 64.9606 126.487 55.0454C126.487 45.0649 118.268 36.9762 108.222 36.9762ZM106.526 63.3298C101.894 63.3298 98.698 59.6116 98.698 55.0454C98.698 50.4792 101.894 46.7609 106.526 46.7609C111.157 46.7609 114.941 50.4792 114.941 55.0454C114.941 59.6116 111.157 63.3298 106.526 63.3298Z" fill="white"/>
<path d="M161.129 49.9573C160.738 48.6527 160.216 47.4133 159.564 46.1739L159.238 45.652C159.107 45.5215 159.042 45.3911 158.977 45.1954L158.781 44.9345C158.651 44.804 158.585 44.6083 158.455 44.4778C158.324 44.2821 158.129 44.0864 157.998 43.8907L157.933 43.7603C157.803 43.6298 157.672 43.4994 157.542 43.3689L157.411 43.2384L157.216 43.4341L157.411 43.1732C157.216 42.9775 157.02 42.7818 156.759 42.5209L156.694 42.3904C156.498 42.26 156.367 42.1295 156.237 41.999L156.172 41.9338C155.976 41.7381 155.846 41.6076 155.65 41.4119L155.454 41.2815C155.193 41.0858 154.998 40.8901 154.737 40.6944C154.671 40.6944 154.606 40.6292 154.541 40.5639H154.476C154.215 40.303 153.889 40.1073 153.563 39.9116C153.236 39.7159 152.78 39.3898 152.454 39.2593C152.388 39.1941 152.258 39.1288 152.193 39.0636L152.062 39.3245L152.127 39.0636C151.997 38.9984 151.801 38.9331 151.671 38.8027H151.606C151.279 38.6722 150.953 38.4765 150.692 38.346H150.562C150.366 38.2808 150.236 38.2156 149.975 38.1503C149.91 38.0851 149.844 38.0851 149.779 38.0199C149.583 37.9547 149.322 37.8894 149.127 37.8242H149.062C148.801 37.759 148.54 37.6285 148.279 37.5633L148.083 37.498C147.561 37.3676 147.039 37.3023 146.517 37.2371L146.257 37.1719C145.735 37.1066 145.213 37.0414 144.626 37.0414L144.43 36.9762C144.104 36.9762 143.843 36.9762 143.582 36.9762C143.321 36.9762 143.06 36.9762 142.734 36.9762C142.669 36.9762 142.604 36.9762 142.538 37.0414H142.473C142.277 37.0414 142.082 37.0414 141.886 37.0414H141.821C141.756 37.0414 141.69 37.1066 141.625 37.1066C141.299 37.1066 141.038 37.1719 140.842 37.1719C140.842 37.1719 140.842 37.1719 140.777 37.1719C140.516 37.2371 140.125 37.3023 139.864 37.3676H139.733C139.538 37.4328 139.342 37.4328 139.146 37.498H139.081C139.016 37.5633 139.016 37.5633 138.951 37.5633C138.69 37.6285 138.429 37.6937 138.168 37.759C137.907 37.8894 137.646 37.9547 137.385 38.0199C137.32 38.0851 137.255 38.0851 137.189 38.0851V38.1503C136.994 38.2156 136.798 38.2808 136.602 38.346H136.537C136.472 38.4113 136.472 38.4113 136.407 38.4113C136.146 38.5417 135.885 38.6722 135.624 38.7374C135.428 38.8679 135.167 38.9984 134.971 39.1288C134.906 39.1288 134.841 39.1941 134.776 39.1941L134.711 39.2593C134.58 39.3245 134.384 39.3898 134.254 39.5202L133.993 39.6507C133.797 39.7811 133.602 39.9116 133.341 40.0421C131.188 41.5424 129.296 43.4341 127.926 45.652C127.796 45.9129 127.666 46.1086 127.535 46.3696L127.405 46.6305C127.339 46.6957 127.339 46.7609 127.274 46.8262C127.274 46.8914 127.209 46.9566 127.209 46.9566L127.144 47.0871C127.078 47.1523 127.078 47.2176 127.078 47.2828C126.948 47.5437 126.817 47.7394 126.752 48.0003C126.557 48.457 126.361 48.8484 126.23 49.3702C125.709 50.9358 125.382 52.5013 125.317 54.1321C125.317 54.3931 125.317 54.7192 125.317 55.0454C125.317 55.3715 125.317 55.6325 125.317 55.9586C125.382 56.8719 125.448 57.7851 125.643 58.6984C125.709 58.9593 125.774 59.2854 125.839 59.5464C125.969 59.8725 126.035 60.2639 126.23 60.6553C126.491 61.4381 126.752 62.2209 127.144 62.9384C127.144 63.0037 127.144 63.0037 127.209 63.0689L127.274 63.1994C127.339 63.3951 127.47 63.5907 127.535 63.7212L127.6 63.8517C127.731 64.0474 127.796 64.1778 127.926 64.3735C129.296 66.5914 131.188 68.5484 133.341 69.9835C133.602 70.1792 133.797 70.3096 133.993 70.4401L134.254 70.5705C134.384 70.6358 134.58 70.7662 134.711 70.8315H134.776C134.841 70.8967 134.906 70.8967 134.971 70.9619C135.167 71.0924 135.428 71.2229 135.624 71.2881H135.689C135.885 71.4186 136.146 71.549 136.407 71.6143C136.472 71.6795 136.472 71.6795 136.537 71.6795L136.602 71.7447C136.798 71.81 136.994 71.8752 137.189 71.9404C137.255 72.0056 137.32 72.0056 137.385 72.0056C137.646 72.1361 137.907 72.2013 138.168 72.2666C138.364 72.3318 138.624 72.397 138.951 72.5275C139.016 72.5275 139.016 72.5275 139.081 72.5275H139.146C139.342 72.5927 139.538 72.658 139.733 72.658L139.994 72.7232C140.19 72.7884 140.451 72.8537 140.647 72.8537H140.842C141.038 72.9189 141.299 72.9841 141.625 72.9841C141.69 72.9841 141.756 72.9841 141.821 72.9841H141.886C142.082 73.0494 142.277 73.0494 142.473 73.0494H142.538C142.604 73.0494 142.669 73.0494 142.734 73.0494C143.06 73.1146 143.321 73.1146 143.582 73.1146C143.843 73.1146 144.104 73.1146 144.43 73.0494H144.626C145.213 73.0494 145.735 72.9841 146.322 72.9189L146.517 72.8537C147.039 72.7884 147.561 72.658 148.083 72.5275L148.279 72.4623C148.54 72.397 148.801 72.3318 149.062 72.2666H149.127C149.322 72.2013 149.583 72.0709 149.779 72.0056L150.04 71.9404C150.236 71.8752 150.366 71.81 150.627 71.7447V71.6795C150.953 71.549 151.279 71.4186 151.606 71.2881L151.671 71.2229C151.801 71.1576 151.997 71.0924 152.127 71.0272L152.193 70.9619C152.258 70.9619 152.388 70.8967 152.454 70.8315L152.519 70.7662C152.91 70.5705 153.236 70.3749 153.563 70.1792L153.628 70.1139C153.954 69.9182 154.215 69.7225 154.541 69.5268L154.737 69.3311C154.998 69.2007 155.193 69.005 155.454 68.7441L155.324 68.5484L155.519 68.7441L155.715 68.5484C155.846 68.4179 156.041 68.2874 156.172 68.157L156.237 68.0917C156.367 67.9613 156.498 67.8308 156.694 67.6351L156.824 67.5047C157.02 67.309 157.216 67.1133 157.411 66.8523L157.542 66.7219C157.672 66.5914 157.803 66.4609 157.933 66.2653L157.998 66.1348C158.064 66.0696 158.129 66.0043 158.194 65.8739L158.324 65.7434C158.52 65.4825 158.716 65.2215 158.977 64.8954C159.107 64.5692 159.238 64.3735 159.433 64.1126L159.564 63.8517C159.694 63.5907 159.955 63.0689 160.151 62.6123C160.347 62.2861 160.151 61.8947 159.76 61.8295L150.562 60.1987C150.301 60.1335 150.105 60.2639 149.975 60.3944C148.344 62.547 145.996 63.5907 143.517 63.5907C140.581 63.5907 137.907 62.0252 136.407 59.5464C136.211 59.155 136.472 58.6984 136.928 58.6984H161.064C161.325 58.6984 161.586 58.5027 161.586 58.2417C161.782 57.198 161.912 56.0239 161.912 55.0454C161.912 53.2841 161.651 51.5881 161.129 49.9573ZM150.562 51.1315H137.45C137.124 51.1315 136.863 50.8053 136.928 50.4792C137.385 47.9351 140.581 45.9129 144.039 45.9129C147.757 45.9129 150.692 47.9351 151.084 50.4792C151.149 50.8053 150.888 51.1315 150.562 51.1315Z" fill="white"/>
<path d="M198.624 37.498H188.97C188.709 37.498 188.448 37.759 188.448 38.0851V39.1288C188.448 39.3245 188.187 39.455 187.992 39.3245C185.252 37.759 182.121 36.9762 178.924 36.9762C168.814 36.9762 160.66 45.0649 160.66 55.0454C160.66 64.9606 168.814 73.0494 178.924 73.0494C182.121 73.0494 185.252 72.2666 187.992 70.701C188.187 70.5705 188.448 70.701 188.448 70.9619V71.4186C188.448 71.7447 188.709 72.0056 188.97 72.0056H198.624C198.951 72.0056 199.146 71.7447 199.146 71.4186V38.0851C199.146 37.759 198.951 37.498 198.624 37.498ZM180.555 63.3298C175.989 63.3298 172.206 59.6116 172.206 55.0454C172.206 50.4792 175.989 46.7609 180.555 46.7609C185.187 46.7609 188.448 50.4792 188.448 55.0454C188.448 59.6116 185.187 63.3298 180.555 63.3298Z" fill="white"/>
<path d="M231.955 63.7212L224.323 59.3507C224.127 59.2202 223.801 59.2854 223.605 59.5464C222.04 61.9599 219.756 63.3298 217.147 63.3298C214.538 63.3298 212.255 62.1556 210.689 60.3292C209.385 58.9593 208.602 57.0676 208.602 55.0454C208.602 52.958 209.385 51.1315 210.689 49.6964C212.255 47.8699 214.538 46.7609 217.147 46.7609C219.756 46.7609 222.04 48.0656 223.605 50.5444C223.801 50.7401 224.127 50.8053 224.323 50.6749L227.193 49.0441L232.085 46.2391C232.281 46.1086 232.346 45.8477 232.216 45.652C231.89 45.1302 231.563 44.6735 231.237 44.2169C230.911 43.7603 230.52 43.3689 230.128 42.9123C230.128 42.9123 230.128 42.847 230.063 42.847C229.933 42.6513 229.737 42.4556 229.541 42.3252C229.541 42.26 229.476 42.26 229.476 42.1947C229.28 42.0643 229.15 41.9338 228.954 41.7381C228.889 41.6729 228.758 41.6076 228.693 41.4772C228.628 41.4119 228.563 41.3467 228.498 41.2815C225.823 39.0636 222.561 37.6285 219.104 37.1066C218.974 37.1066 218.843 37.1066 218.713 37.1066C218.582 37.1066 218.452 37.0414 218.321 37.0414C218.06 37.0414 217.865 37.0414 217.604 36.9762C217.539 36.9762 217.473 36.9762 217.408 36.9762C217.147 36.9762 216.821 36.9762 216.56 36.9762C206.449 36.9762 198.295 45.0649 198.295 55.0454C198.295 64.9606 206.449 73.0494 216.56 73.0494C216.821 73.0494 217.147 73.0494 217.408 73.0494C217.473 73.0494 217.539 73.0494 217.604 73.0494C217.865 73.0494 218.06 72.9841 218.321 72.9841C218.452 72.9841 218.582 72.9841 218.713 72.9189C218.843 72.9189 218.974 72.9189 219.104 72.9189C222.561 72.397 225.823 70.9619 228.498 68.7441C228.563 68.6788 228.628 68.6136 228.693 68.5484C228.758 68.4831 228.889 68.3527 228.954 68.2874C229.15 68.157 229.28 67.9613 229.476 67.8308C229.476 67.7656 229.541 67.7656 229.541 67.7656C229.737 67.5699 229.998 67.309 230.128 67.1785C230.128 67.1133 230.128 67.1133 230.128 67.1133C230.52 66.7219 230.911 66.2652 231.237 65.8086C231.433 65.5477 231.824 64.9606 232.151 64.504C232.281 64.2431 232.216 63.9169 231.955 63.7212Z" fill="white"/>
<path d="M258.676 40.5639C258.415 40.303 258.155 40.1073 257.894 39.9116C257.828 39.8464 250.262 33.9103 242.499 39.2593C242.303 39.3898 242.042 39.2593 242.042 38.9984V27.1914C242.042 26.9305 241.781 26.6696 241.52 26.6696H231.866C231.54 26.6696 231.344 26.9305 231.344 27.1914V71.4838C231.344 71.7447 231.54 72.0056 231.866 72.0056H242.173C242.434 72.0056 242.695 71.7447 242.695 71.4838V52.5666C242.695 51.2619 242.695 49.6311 243.282 48.457C243.738 47.348 245.304 46.6957 247.261 46.6957C248.305 46.6957 249.153 46.9566 249.805 47.4133C250.196 47.7394 250.522 48.1308 250.783 48.6527C251.305 49.8268 251.37 51.3272 251.37 52.5666V71.4838C251.37 71.7447 251.631 72.0056 251.958 72.0056H262.199C262.525 72.0056 262.786 71.7447 262.786 71.4838V52.0447C262.786 46.9566 262.199 44.0864 258.676 40.5639Z" fill="white"/>
<path d="M108.287 109.954H106.395C105.417 109.954 104.634 109.693 104.112 109.171C103.264 108.323 103.329 106.888 103.395 105.845V105.584C103.395 105.518 103.395 97.0383 103.395 94.1681C103.395 93.9072 103.656 93.6463 103.917 93.6463H107.504C107.83 93.6463 108.091 93.3854 108.091 93.0592V84.9052C108.091 84.6443 107.83 84.3834 107.504 84.3834H103.917C103.656 84.3834 103.395 84.1224 103.395 83.7963V74.3377C103.395 74.0768 103.134 73.8158 102.808 73.8158H93.2185C92.8924 73.8158 92.6315 74.0768 92.6315 74.3377V83.7963C92.6315 84.1224 92.3705 84.3834 92.1096 84.3834H88.5219C88.1957 84.3834 88 84.6443 88 84.9052V93.0592C88 93.3854 88.1957 93.6463 88.5219 93.6463H92.1096C92.3705 93.6463 92.6315 93.9072 92.6315 94.1681V110.737C92.6315 116.151 95.7626 119.152 101.568 119.413C101.633 119.413 101.699 119.413 101.764 119.413C102.742 119.413 105.874 119.282 107.113 119.217C107.374 119.152 107.57 118.956 107.57 118.695L108.809 110.541C108.874 110.215 108.613 109.954 108.287 109.954Z" fill="white"/>
<path d="M142.783 96.8427C142.392 95.538 141.87 94.2986 141.217 93.0592L140.891 92.5373C140.761 92.4069 140.696 92.2764 140.63 92.0807L140.435 91.8198C140.304 91.6893 140.239 91.4936 140.108 91.3632C139.978 91.1675 139.782 90.9718 139.652 90.7761L139.587 90.6456C139.456 90.5152 139.326 90.3847 139.195 90.2542L139.065 90.1238L138.869 90.3195L139.065 90.0585C138.869 89.8628 138.673 89.6671 138.412 89.4062L138.347 89.2758C138.152 89.1453 138.021 89.0148 137.891 88.8844L137.825 88.8191C137.63 88.6234 137.499 88.493 137.304 88.2973L137.108 88.1668C136.847 87.9711 136.651 87.7754 136.39 87.5797C136.325 87.5797 136.26 87.5145 136.195 87.4493H136.129C135.868 87.1883 135.542 86.9926 135.216 86.797C134.89 86.6013 134.433 86.2751 134.107 86.1446C134.042 86.0794 133.911 86.0142 133.846 85.9489L133.716 86.2099L133.781 85.9489C133.651 85.8837 133.455 85.8185 133.324 85.688H133.259C132.933 85.5575 132.607 85.3619 132.346 85.2314H132.215C132.02 85.1662 131.889 85.1009 131.628 85.0357C131.563 84.9705 131.498 84.9705 131.433 84.9052C131.237 84.84 130.976 84.7748 130.78 84.7095H130.715C130.454 84.6443 130.193 84.5138 129.932 84.4486L129.737 84.3834C129.215 84.2529 128.693 84.1877 128.171 84.1224L127.91 84.0572C127.388 83.992 126.866 83.9268 126.279 83.9268L126.084 83.8615C125.757 83.8615 125.497 83.8615 125.236 83.8615C124.975 83.8615 124.714 83.8615 124.388 83.8615C124.322 83.8615 124.257 83.8615 124.192 83.9268H124.127C123.931 83.9268 123.735 83.9268 123.54 83.9268H123.474C123.409 83.9268 123.344 83.992 123.279 83.992C122.953 83.992 122.692 84.0572 122.496 84.0572C122.496 84.0572 122.496 84.0572 122.431 84.0572C122.17 84.1224 121.778 84.1877 121.517 84.2529H121.387C121.191 84.3181 120.996 84.3181 120.8 84.3834H120.735C120.669 84.4486 120.669 84.4486 120.604 84.4486C120.343 84.5138 120.082 84.5791 119.821 84.6443C119.56 84.7748 119.3 84.84 119.039 84.9052C118.973 84.9705 118.908 84.9705 118.843 84.9705V85.0357C118.647 85.1009 118.452 85.1662 118.256 85.2314H118.191C118.125 85.2966 118.125 85.2966 118.06 85.2966C117.799 85.4271 117.538 85.5575 117.277 85.6228C117.082 85.7532 116.821 85.8837 116.625 86.0142C116.56 86.0142 116.495 86.0794 116.429 86.0794L116.364 86.1446C116.234 86.2099 116.038 86.2751 115.907 86.4056L115.647 86.536C115.451 86.6665 115.255 86.797 114.994 86.9274C112.842 88.4277 110.95 90.3195 109.58 92.5373C109.45 92.7983 109.319 92.994 109.189 93.2549L109.058 93.5158C108.993 93.5811 108.993 93.6463 108.928 93.7115C108.928 93.7767 108.862 93.842 108.862 93.842L108.797 93.9724C108.732 94.0377 108.732 94.1029 108.732 94.1681C108.602 94.4291 108.471 94.6248 108.406 94.8857C108.21 95.3423 108.014 95.7337 107.884 96.2556C107.362 97.8211 107.036 99.3867 106.971 101.017C106.971 101.278 106.971 101.605 106.971 101.931C106.971 102.257 106.971 102.518 106.971 102.844C107.036 103.757 107.101 104.67 107.297 105.584C107.362 105.845 107.427 106.171 107.493 106.432C107.623 106.758 107.688 107.149 107.884 107.541C108.145 108.323 108.406 109.106 108.797 109.824C108.797 109.889 108.797 109.889 108.862 109.954L108.928 110.085C108.993 110.28 109.123 110.476 109.189 110.607L109.254 110.737C109.384 110.933 109.45 111.063 109.58 111.259C110.95 113.477 112.842 115.434 114.994 116.869C115.255 117.064 115.451 117.195 115.647 117.325L115.907 117.456C116.038 117.521 116.234 117.652 116.364 117.717H116.429C116.495 117.782 116.56 117.782 116.625 117.847C116.821 117.978 117.082 118.108 117.277 118.173H117.343C117.538 118.304 117.799 118.434 118.06 118.5C118.125 118.565 118.125 118.565 118.191 118.565L118.256 118.63C118.452 118.695 118.647 118.761 118.843 118.826C118.908 118.891 118.973 118.891 119.039 118.891C119.3 119.021 119.56 119.087 119.821 119.152C120.017 119.217 120.278 119.282 120.604 119.413C120.669 119.413 120.669 119.413 120.735 119.413H120.8C120.996 119.478 121.191 119.543 121.387 119.543L121.648 119.609C121.844 119.674 122.105 119.739 122.3 119.739H122.496C122.692 119.804 122.953 119.869 123.279 119.869C123.344 119.869 123.409 119.869 123.474 119.869H123.54C123.735 119.935 123.931 119.935 124.127 119.935H124.192C124.257 119.935 124.322 119.935 124.388 119.935C124.714 120 124.975 120 125.236 120C125.497 120 125.757 120 126.084 119.935H126.279C126.866 119.935 127.388 119.869 127.975 119.804L128.171 119.739C128.693 119.674 129.215 119.543 129.737 119.413L129.932 119.348C130.193 119.282 130.454 119.217 130.715 119.152H130.78C130.976 119.087 131.237 118.956 131.433 118.891L131.694 118.826C131.889 118.761 132.02 118.695 132.281 118.63V118.565C132.607 118.434 132.933 118.304 133.259 118.173L133.324 118.108C133.455 118.043 133.651 117.978 133.781 117.913L133.846 117.847C133.911 117.847 134.042 117.782 134.107 117.717L134.172 117.652C134.564 117.456 134.89 117.26 135.216 117.064L135.281 116.999C135.607 116.804 135.868 116.608 136.195 116.412L136.39 116.216C136.651 116.086 136.847 115.89 137.108 115.629L136.977 115.434L137.173 115.629L137.369 115.434C137.499 115.303 137.695 115.173 137.825 115.042L137.891 114.977C138.021 114.847 138.152 114.716 138.347 114.52L138.478 114.39C138.673 114.194 138.869 113.999 139.065 113.738L139.195 113.607C139.326 113.477 139.456 113.346 139.587 113.151L139.652 113.02C139.717 112.955 139.782 112.89 139.848 112.759L139.978 112.629C140.174 112.368 140.369 112.107 140.63 111.781C140.761 111.455 140.891 111.259 141.087 110.998L141.217 110.737C141.348 110.476 141.609 109.954 141.804 109.498C142 109.171 141.804 108.78 141.413 108.715L132.215 107.084C131.954 107.019 131.759 107.149 131.628 107.28C129.998 109.432 127.649 110.476 125.17 110.476C122.235 110.476 119.56 108.911 118.06 106.432C117.864 106.04 118.125 105.584 118.582 105.584H142.718C142.979 105.584 143.24 105.388 143.24 105.127C143.435 104.083 143.566 102.909 143.566 101.931C143.566 100.169 143.305 98.4734 142.783 96.8427ZM132.215 98.0168H119.104C118.778 98.0168 118.517 97.6907 118.582 97.3645C119.039 94.8205 122.235 92.7983 125.692 92.7983C129.41 92.7983 132.346 94.8205 132.737 97.3645C132.803 97.6907 132.542 98.0168 132.215 98.0168Z" fill="white"/>
<path d="M169.964 87.4493C169.703 87.1883 169.442 86.9926 169.181 86.797C169.116 86.7317 161.549 80.7956 153.786 86.1446C153.591 86.2751 153.33 86.1446 153.33 85.8837V84.9705C153.33 84.6443 153.069 84.3834 152.808 84.3834H143.153C142.827 84.3834 142.632 84.6443 142.632 84.9705V118.369C142.632 118.63 142.827 118.891 143.153 118.891H153.46C153.721 118.891 153.982 118.63 153.982 118.369V99.4519C153.982 98.1473 153.982 96.5165 154.569 95.3423C155.026 94.2334 156.591 93.581 158.548 93.581C159.592 93.581 160.44 93.842 161.092 94.2986C161.484 94.6248 161.81 95.0162 162.071 95.538C162.593 96.7122 162.658 98.2125 162.658 99.4519V118.369C162.658 118.63 162.919 118.891 163.245 118.891H173.486C173.812 118.891 174.073 118.63 174.073 118.369V98.9301C174.073 93.842 173.486 90.9718 169.964 87.4493Z" fill="white"/>
<path d="M202.121 87.4493C201.86 87.1883 201.599 86.9926 201.338 86.797C201.273 86.7317 193.706 80.7956 185.943 86.1446C185.748 86.2751 185.487 86.1446 185.487 85.8837V84.9705C185.487 84.6443 185.226 84.3834 184.965 84.3834H175.311C174.985 84.3834 174.789 84.6443 174.789 84.9705V118.369C174.789 118.63 174.985 118.891 175.311 118.891H185.617C185.878 118.891 186.139 118.63 186.139 118.369V99.4519C186.139 98.1473 186.139 96.5165 186.726 95.3423C187.183 94.2334 188.748 93.581 190.705 93.581C191.749 93.581 192.597 93.842 193.249 94.2986C193.641 94.6248 193.967 95.0162 194.228 95.538C194.75 96.7122 194.815 98.2125 194.815 99.4519V118.369C194.815 118.63 195.076 118.891 195.402 118.891H205.643C205.97 118.891 206.231 118.63 206.231 118.369V98.9301C206.231 93.842 205.643 90.9718 202.121 87.4493Z" fill="white"/>
<path d="M217.122 84.3834H207.468C207.142 84.3834 206.946 84.6443 206.946 84.9705V118.369C206.946 118.63 207.142 118.891 207.468 118.891H217.122C217.383 118.891 217.644 118.63 217.644 118.369V84.9705C217.644 84.6443 217.383 84.3834 217.122 84.3834ZM217.122 73.5549H207.468C207.142 73.5549 206.946 73.8158 206.946 74.0768V81.1218C206.946 81.4479 207.142 81.7089 207.468 81.7089H217.122C217.383 81.7089 217.644 81.4479 217.644 81.1218V74.0768C217.644 73.8158 217.383 73.5549 217.122 73.5549Z" fill="white"/>
<path d="M237.804 99.1258C237.022 98.7996 236.239 98.5387 235.456 98.2125C234.804 97.9516 234.217 97.6907 233.499 97.4297C230.042 96.0599 229.389 95.0814 229.194 94.4291C229.128 94.0377 229.259 93.5158 229.585 93.1244C230.107 92.6026 230.824 92.4069 231.607 92.4721C232.847 92.6026 233.434 93.2549 233.695 93.9072C233.825 94.1681 234.021 94.2986 234.282 94.2986L243.61 92.4069C243.936 92.3417 244.132 92.0155 244.067 91.7546C243.545 89.4062 242.044 87.9059 241.522 87.4493C240.805 86.8622 240.022 86.2751 239.109 85.8185C237.348 84.9052 235.26 84.2529 232.912 83.992C229.063 83.5354 225.345 84.3181 222.54 86.1446C221.562 86.7317 220.714 87.4493 219.996 88.2973C219.474 88.8844 217.061 92.0807 217.778 95.8642C218.235 98.4734 220.192 100.757 223.453 102.648C223.519 102.714 223.649 102.779 223.714 102.779L223.779 102.844C224.432 103.17 225.084 103.496 225.802 103.822C226.78 104.279 227.693 104.736 228.411 105.062L228.476 105.127C232.129 106.823 232.847 107.41 232.977 108.584C233.042 109.106 232.912 109.628 232.521 109.954C232.129 110.346 231.412 110.737 229.976 110.541C229.324 110.476 228.215 110.019 227.563 109.041C227.432 108.845 227.171 108.715 226.976 108.78L217.517 110.802C217.191 110.867 216.995 111.259 217.126 111.585C218.169 113.933 219.67 115.825 221.692 117.195C223.584 118.239 225.932 118.956 228.607 119.282C229.455 119.413 230.303 119.413 231.085 119.413C237.021 119.413 241.783 116.804 243.871 112.433C244.393 111.128 244.719 109.824 244.784 108.584C245.11 103.17 240.022 100.169 237.804 99.1258Z" fill="white"/>
</svg>
