<svg xmlns="http://www.w3.org/2000/svg" width="186" height="85" viewBox="0 0 186 85" fill="none">
  <rect width="9.37958" height="33.7604" fill="white"/>
  <rect x="47.6797" width="9.37958" height="33.7604" fill="white"/>
  <rect y="10.9307" width="10.9306" height="57.0591" transform="rotate(-90 0 10.9307)" fill="white"/>
  <rect width="9.37958" height="33.7604" transform="matrix(1 0 0 -1 0 84.8571)" fill="white"/>
  <rect width="9.37958" height="33.7604" transform="matrix(1 0 0 -1 47.6797 84.8571)" fill="white"/>
  <rect width="10.9306" height="57.0591" transform="matrix(-4.17653e-08 1 1 4.57481e-08 0 73.9265)" fill="white"/>
  <rect y="48.3407" width="10.9306" height="57.0591" transform="rotate(-90 0 48.3407)" fill="white"/>
  <path d="M69.0326 3.58935C68.2758 3.61097 67.3893 3.69746 66.6325 4.17316C66.5677 4.2164 66.4812 4.17316 66.4812 4.10829V3.78395C66.4812 3.67584 66.3947 3.58935 66.3082 3.58935H63.108C62.9999 3.58935 62.9351 3.67584 62.9351 3.78395V14.8547C62.9351 14.9412 62.9999 15.0277 63.108 15.0277H66.5244C66.6109 15.0277 66.6974 14.9412 66.6974 14.8547V8.41119C66.6974 7.97873 66.6974 7.61115 66.892 7.22194C66.9569 7.07059 67.1947 6.74625 67.6055 6.65976C67.9731 6.57327 68.6002 6.61651 68.9029 6.63813C69.011 6.63813 69.0975 6.57327 69.0975 6.46515L69.2056 3.78395C69.2272 3.67584 69.1407 3.58935 69.0326 3.58935Z" fill="white"/>
  <path d="M81.6852 3.58935H78.4851C78.3986 3.58935 78.3121 3.67584 78.3121 3.78395V4.12991C78.3121 4.19478 78.2256 4.23803 78.1607 4.19478C77.2526 3.67584 76.2147 3.41637 75.1552 3.41637C71.8037 3.41637 69.1009 6.09757 69.1009 9.40583C69.1009 12.6925 71.8037 15.3737 75.1552 15.3737C76.2147 15.3737 77.2526 15.1142 78.1607 14.5952C78.2256 14.552 78.3121 14.5952 78.3121 14.6817V14.8331C78.3121 14.9412 78.3986 15.0277 78.4851 15.0277H81.6852C81.7933 15.0277 81.8582 14.9412 81.8582 14.8331V3.78395C81.8582 3.67584 81.7933 3.58935 81.6852 3.58935ZM75.6958 12.1519C74.1822 12.1519 72.9281 10.9194 72.9281 9.40583C72.9281 7.89224 74.1822 6.65976 75.6958 6.65976C77.231 6.65976 78.3121 7.89224 78.3121 9.40583C78.3121 10.9194 77.231 12.1519 75.6958 12.1519Z" fill="white"/>
  <path d="M92.2661 4.60561C92.1796 4.51912 92.0931 4.45425 92.0066 4.38939C91.985 4.36776 89.4768 2.40011 86.9037 4.17316C86.8388 4.2164 86.7523 4.17316 86.7523 4.08667V3.78395C86.7523 3.67584 86.6658 3.58935 86.5794 3.58935H83.3792C83.2711 3.58935 83.2062 3.67584 83.2062 3.78395V14.8547C83.2062 14.9412 83.2711 15.0277 83.3792 15.0277H86.7956C86.8821 15.0277 86.9686 14.9412 86.9686 14.8547V8.58417C86.9686 8.15172 86.9686 7.61115 87.1632 7.22194C87.3145 6.85436 87.8335 6.63813 88.4821 6.63813C88.8281 6.63813 89.1092 6.72463 89.3254 6.87598C89.4552 6.9841 89.5633 7.11383 89.6498 7.28681C89.8227 7.67602 89.8444 8.17334 89.8444 8.58417V14.8547C89.8444 14.9412 89.9309 15.0277 90.039 15.0277H93.4337C93.5418 15.0277 93.6283 14.9412 93.6283 14.8547V8.41119C93.6283 6.72463 93.4337 5.77323 92.2661 4.60561Z" fill="white"/>
  <path d="M101.35 9.40583C101.328 9.34096 101.328 9.27609 101.35 9.21122L104.572 3.87044C104.637 3.76233 104.55 3.58935 104.42 3.58935H100.701C100.636 3.58935 100.572 3.63259 100.55 3.69746L98.712 7.11383C98.6255 7.28681 98.366 7.22194 98.366 7.02734V0.172981C98.366 0.0864906 98.2795 0 98.1931 0H94.9929C94.8848 0 94.8199 0.0864906 94.8199 0.172981V14.8547C94.8199 14.9412 94.8848 15.0277 94.9929 15.0277H98.1931C98.2795 15.0277 98.366 14.9412 98.366 14.8547V11.5897C98.366 11.4167 98.6255 11.3519 98.712 11.5032L100.55 14.9412C100.572 14.9845 100.636 15.0277 100.701 15.0277H104.42C104.55 15.0277 104.637 14.8763 104.572 14.7466L101.35 9.40583Z" fill="white"/>
  <path d="M108.624 3.58935H105.424C105.316 3.58935 105.251 3.67584 105.251 3.78395V14.8547C105.251 14.9412 105.316 15.0277 105.424 15.0277H108.624C108.711 15.0277 108.797 14.9412 108.797 14.8547V3.78395C108.797 3.67584 108.711 3.58935 108.624 3.58935ZM108.624 0H105.424C105.316 0 105.251 0.0864906 105.251 0.172981V2.50822C105.251 2.61633 105.316 2.70282 105.424 2.70282H108.624C108.711 2.70282 108.797 2.61633 108.797 2.50822V0.172981C108.797 0.0864906 108.711 0 108.624 0Z" fill="white"/>
  <path d="M119.189 4.60561C119.102 4.51912 119.016 4.45425 118.929 4.38939C118.908 4.36776 116.399 2.40011 113.826 4.17316C113.761 4.2164 113.675 4.17316 113.675 4.08667V3.78395C113.675 3.67584 113.588 3.58935 113.502 3.58935H110.302C110.194 3.58935 110.129 3.67584 110.129 3.78395V14.8547C110.129 14.9412 110.194 15.0277 110.302 15.0277H113.718C113.805 15.0277 113.891 14.9412 113.891 14.8547V8.58417C113.891 8.15172 113.891 7.61115 114.086 7.22194C114.237 6.85436 114.756 6.63813 115.405 6.63813C115.751 6.63813 116.032 6.72463 116.248 6.87598C116.378 6.9841 116.486 7.11383 116.572 7.28681C116.745 7.67602 116.767 8.17334 116.767 8.58417V14.8547C116.767 14.9412 116.854 15.0277 116.962 15.0277H120.356C120.464 15.0277 120.551 14.9412 120.551 14.8547V8.41119C120.551 6.72463 120.356 5.77323 119.189 4.60561Z" fill="white"/>
  <path d="M133.861 3.63259H130.683C130.575 3.63259 130.488 3.71909 130.488 3.80558V4.15154C130.488 4.2164 130.423 4.25965 130.359 4.23803C129.45 3.71909 128.412 3.43799 127.353 3.43799C124.023 3.43799 121.32 6.11919 121.32 9.40583C121.32 12.6925 124.023 15.3737 127.353 15.3737C128.412 15.3737 129.429 15.1142 130.337 14.5952C130.402 14.5736 130.467 14.5952 130.488 14.6601C130.575 15.1574 130.488 15.6115 130.229 16.0007C129.818 16.5629 129.04 16.9305 128.088 16.9954C126.618 17.0818 125.493 16.1521 124.974 15.6331C124.91 15.5683 124.823 15.5466 124.737 15.6115L122.401 17.4278C122.293 17.4927 122.293 17.6224 122.38 17.7089C124.823 19.936 126.964 20.0441 127.829 20.0441C127.894 20.0441 127.937 20.0441 127.98 20.0441H128.088C131.915 20.0441 134.034 17.8819 134.034 13.9466V12.8006V3.80558C134.034 3.71909 133.969 3.63259 133.861 3.63259ZM127.894 12.1519C127.872 12.1519 127.85 12.1519 127.829 12.1519H127.807C126.315 12.1087 125.126 10.8978 125.126 9.40583C125.126 7.91387 126.38 6.68138 127.894 6.68138C129.061 6.68138 129.926 7.39493 130.315 8.45443C130.445 8.75715 130.488 9.08149 130.488 9.40583C130.488 10.9194 129.429 12.1519 127.894 12.1519Z" fill="white"/>
  <path d="M76.5283 26.1474C74.268 26.1474 72.0538 26.701 70.0703 27.8081C69.9781 27.9003 69.7935 27.8081 69.7935 27.6697V19.2282C69.7935 18.9976 69.609 18.8592 69.4245 18.8592H62.5975C62.3669 18.8592 62.2285 18.9976 62.2285 19.2282V50.5031C62.2285 50.7338 62.3669 50.9183 62.5975 50.9183H69.4245C69.609 50.9183 69.7935 50.7338 69.7935 50.5031V50.1802C69.7935 49.9957 69.9781 49.9035 70.0703 49.9957C72.0538 51.1028 74.268 51.6563 76.5283 51.6563C83.632 51.6563 89.4441 45.9364 89.4441 38.925C89.4441 31.8673 83.632 26.1474 76.5283 26.1474ZM75.3289 44.7832C72.0538 44.7832 69.7935 42.1539 69.7935 38.925C69.7935 35.696 72.0538 33.0667 75.3289 33.0667C78.604 33.0667 81.2795 35.696 81.2795 38.925C81.2795 42.1539 78.604 44.7832 75.3289 44.7832Z" fill="white"/>
  <path d="M113.941 35.327C113.665 34.4044 113.296 33.528 112.834 32.6515L112.604 32.2825C112.511 32.1902 112.465 32.098 112.419 31.9596L112.281 31.7751C112.189 31.6828 112.142 31.5444 112.05 31.4522C111.958 31.3138 111.82 31.1754 111.727 31.037L111.681 30.9448C111.589 30.8525 111.497 30.7603 111.404 30.668L111.312 30.5758L111.174 30.7141L111.312 30.5296C111.174 30.3912 111.035 30.2529 110.851 30.0683L110.805 29.9761C110.666 29.8838 110.574 29.7916 110.482 29.6993L110.436 29.6532C110.297 29.5148 110.205 29.4225 110.067 29.2842L109.928 29.1919C109.744 29.0535 109.605 28.9151 109.421 28.7768C109.375 28.7768 109.329 28.7306 109.283 28.6845H109.236C109.052 28.5 108.821 28.3616 108.591 28.2232C108.36 28.0848 108.037 27.8542 107.806 27.7619C107.76 27.7158 107.668 27.6697 107.622 27.6235L107.53 27.8081L107.576 27.6235C107.484 27.5774 107.345 27.5313 107.253 27.439H107.207C106.976 27.3468 106.745 27.2084 106.561 27.1161H106.469C106.33 27.07 106.238 27.0239 106.054 26.9778C106.007 26.9316 105.961 26.9316 105.915 26.8855C105.777 26.8394 105.592 26.7932 105.454 26.7471H105.408C105.223 26.701 105.039 26.6087 104.854 26.5626L104.716 26.5165C104.347 26.4242 103.978 26.3781 103.609 26.332L103.424 26.2858C103.055 26.2397 102.686 26.1936 102.271 26.1936L102.133 26.1474C101.902 26.1474 101.717 26.1474 101.533 26.1474C101.348 26.1474 101.164 26.1474 100.933 26.1474C100.887 26.1474 100.841 26.1474 100.795 26.1936H100.749C100.61 26.1936 100.472 26.1936 100.334 26.1936H100.288C100.241 26.1936 100.195 26.2397 100.149 26.2397C99.9185 26.2397 99.734 26.2858 99.5956 26.2858C99.5956 26.2858 99.5956 26.2858 99.5495 26.2858C99.3649 26.332 99.0882 26.3781 98.9037 26.4242H98.8114C98.673 26.4703 98.5346 26.4703 98.3963 26.5165H98.3501C98.304 26.5626 98.304 26.5626 98.2579 26.5626C98.0734 26.6087 97.8888 26.6549 97.7043 26.701C97.5198 26.7932 97.3353 26.8394 97.1508 26.8855C97.1047 26.9316 97.0585 26.9316 97.0124 26.9316V26.9778C96.874 27.0239 96.7356 27.07 96.5973 27.1161H96.5511C96.505 27.1623 96.505 27.1623 96.4589 27.1623C96.2744 27.2545 96.0899 27.3468 95.9053 27.3929C95.767 27.4852 95.5824 27.5774 95.4441 27.6697C95.3979 27.6697 95.3518 27.7158 95.3057 27.7158L95.2595 27.7619C95.1673 27.8081 95.0289 27.8542 94.9366 27.9464L94.7521 28.0387C94.6137 28.131 94.4754 28.2232 94.2908 28.3155C92.7686 29.3764 91.4309 30.7141 90.4622 32.2825C90.37 32.467 90.2777 32.6054 90.1854 32.7899L90.0932 32.9744C90.0471 33.0205 90.0471 33.0667 90.0009 33.1128C90.0009 33.1589 89.9548 33.2051 89.9548 33.2051L89.9087 33.2973C89.8625 33.3434 89.8625 33.3896 89.8625 33.4357C89.7703 33.6202 89.678 33.7586 89.6319 33.9431C89.4935 34.266 89.3551 34.5428 89.2629 34.9118C88.8938 36.0189 88.6632 37.126 88.6171 38.2792C88.6171 38.4637 88.6171 38.6943 88.6171 38.925C88.6171 39.1556 88.6171 39.3401 88.6171 39.5708C88.6632 40.2165 88.7093 40.8623 88.8477 41.5081C88.8939 41.6926 88.94 41.9233 88.9861 42.1078C89.0784 42.3384 89.1245 42.6152 89.2629 42.892C89.4474 43.4455 89.6319 43.9991 89.9087 44.5065C89.9087 44.5526 89.9087 44.5526 89.9548 44.5987L90.0009 44.691C90.0471 44.8294 90.1393 44.9677 90.1854 45.06L90.2316 45.1523C90.3238 45.2906 90.37 45.3829 90.4622 45.5213C91.4309 47.0896 92.7686 48.4735 94.2908 49.4883C94.4754 49.6267 94.6137 49.719 94.7521 49.8112L94.9366 49.9035C95.0289 49.9496 95.1673 50.0419 95.2595 50.088H95.3057C95.3518 50.1341 95.3979 50.1341 95.4441 50.1802C95.5824 50.2725 95.767 50.3647 95.9053 50.4109H95.9515C96.0898 50.5031 96.2744 50.5954 96.4589 50.6415C96.505 50.6876 96.505 50.6876 96.5511 50.6876L96.5973 50.7338C96.7356 50.7799 96.874 50.826 97.0124 50.8722C97.0585 50.9183 97.1047 50.9183 97.1508 50.9183C97.3353 51.0105 97.5198 51.0567 97.7043 51.1028C97.8427 51.1489 98.0272 51.1951 98.2579 51.2873C98.304 51.2873 98.304 51.2873 98.3501 51.2873H98.3963C98.5346 51.3334 98.673 51.3796 98.8114 51.3796L98.9959 51.4257C99.1343 51.4718 99.3188 51.518 99.4572 51.518H99.5956C99.734 51.5641 99.9185 51.6102 100.149 51.6102C100.195 51.6102 100.241 51.6102 100.288 51.6102H100.334C100.472 51.6563 100.61 51.6563 100.749 51.6563H100.795C100.841 51.6563 100.887 51.6563 100.933 51.6563C101.164 51.7025 101.348 51.7025 101.533 51.7025C101.717 51.7025 101.902 51.7025 102.133 51.6563H102.271C102.686 51.6563 103.055 51.6102 103.47 51.5641L103.609 51.518C103.978 51.4718 104.347 51.3796 104.716 51.2873L104.854 51.2412C105.039 51.1951 105.223 51.1489 105.408 51.1028H105.454C105.592 51.0567 105.777 50.9644 105.915 50.9183L106.1 50.8722C106.238 50.826 106.33 50.7799 106.515 50.7338V50.6876C106.745 50.5954 106.976 50.5031 107.207 50.4109L107.253 50.3647C107.345 50.3186 107.484 50.2725 107.576 50.2264L107.622 50.1802C107.668 50.1802 107.76 50.1341 107.806 50.088L107.853 50.0419C108.129 49.9035 108.36 49.7651 108.591 49.6267L108.637 49.5806C108.867 49.4422 109.052 49.3038 109.283 49.1654L109.421 49.027C109.605 48.9348 109.744 48.7964 109.928 48.6119L109.836 48.4735L109.974 48.6119L110.113 48.4735C110.205 48.3812 110.343 48.289 110.436 48.1967L110.482 48.1506C110.574 48.0583 110.666 47.9661 110.805 47.8277L110.897 47.7354C111.035 47.5971 111.174 47.4587 111.312 47.2742L111.404 47.1819C111.497 47.0896 111.589 46.9974 111.681 46.859L111.727 46.7667C111.773 46.7206 111.82 46.6745 111.866 46.5822L111.958 46.49C112.096 46.3055 112.235 46.121 112.419 45.8903C112.511 45.6597 112.604 45.5213 112.742 45.3368L112.834 45.1523C112.927 44.9677 113.111 44.5987 113.25 44.2758C113.388 44.0452 113.25 43.7684 112.973 43.7223L106.469 42.5691C106.284 42.523 106.146 42.6152 106.054 42.7075C104.9 44.2297 103.24 44.9678 101.487 44.9678C99.4111 44.9678 97.5198 43.8607 96.4589 42.1078C96.3205 41.831 96.505 41.5081 96.8279 41.5081H113.895C114.08 41.5081 114.264 41.3697 114.264 41.1852C114.403 40.4472 114.495 39.6169 114.495 38.925C114.495 37.6795 114.31 36.4802 113.941 35.327ZM106.469 36.1573H97.1969C96.9663 36.1573 96.7818 35.9266 96.8279 35.696C97.1508 33.897 99.4111 32.467 101.856 32.467C104.485 32.467 106.561 33.897 106.838 35.696C106.884 35.9266 106.699 36.1573 106.469 36.1573Z" fill="white"/>
  <path d="M140.456 26.5165H133.629C133.444 26.5165 133.26 26.701 133.26 26.9316V27.6697C133.26 27.8081 133.075 27.9003 132.937 27.8081C131 26.701 128.785 26.1474 126.525 26.1474C119.375 26.1474 113.609 31.8673 113.609 38.925C113.609 45.9364 119.375 51.6563 126.525 51.6563C128.785 51.6563 131 51.1028 132.937 49.9957C133.075 49.9035 133.26 49.9957 133.26 50.1802V50.5031C133.26 50.7338 133.444 50.9183 133.629 50.9183H140.456C140.686 50.9183 140.825 50.7338 140.825 50.5031V26.9316C140.825 26.701 140.686 26.5165 140.456 26.5165ZM127.678 44.7832C124.449 44.7832 121.774 42.1539 121.774 38.925C121.774 35.696 124.449 33.0667 127.678 33.0667C130.953 33.0667 133.26 35.696 133.26 38.925C133.26 42.1539 130.953 44.7832 127.678 44.7832Z" fill="white"/>
  <path d="M164.025 45.06L158.628 41.9694C158.49 41.8772 158.259 41.9233 158.121 42.1078C157.014 43.8145 155.399 44.7832 153.554 44.7832C151.709 44.7832 150.094 43.9529 148.987 42.6613C148.065 41.6926 147.511 40.3549 147.511 38.925C147.511 37.4489 148.065 36.1573 148.987 35.1424C150.094 33.8509 151.709 33.0667 153.554 33.0667C155.399 33.0667 157.014 33.9892 158.121 35.7421C158.259 35.8805 158.49 35.9266 158.628 35.8344L160.658 34.6812L164.117 32.6976C164.256 32.6054 164.302 32.4209 164.21 32.2825C163.979 31.9135 163.748 31.5906 163.518 31.2677C163.287 30.9448 163.01 30.668 162.734 30.3451C162.734 30.3451 162.734 30.299 162.687 30.299C162.595 30.1606 162.457 30.0222 162.318 29.93C162.318 29.8838 162.272 29.8838 162.272 29.8377C162.134 29.7454 162.042 29.6532 161.903 29.5148C161.857 29.4687 161.765 29.4225 161.719 29.3303C161.673 29.2842 161.626 29.238 161.58 29.1919C159.689 27.6235 157.383 26.6087 154.938 26.2397C154.846 26.2397 154.753 26.2397 154.661 26.2397C154.569 26.2397 154.477 26.1936 154.384 26.1936C154.2 26.1936 154.061 26.1936 153.877 26.1474C153.831 26.1474 153.785 26.1474 153.739 26.1474C153.554 26.1474 153.323 26.1474 153.139 26.1474C145.989 26.1474 140.223 31.8673 140.223 38.925C140.223 45.9364 145.989 51.6563 153.139 51.6563C153.323 51.6563 153.554 51.6563 153.739 51.6563C153.785 51.6563 153.831 51.6563 153.877 51.6563C154.061 51.6563 154.2 51.6102 154.384 51.6102C154.477 51.6102 154.569 51.6102 154.661 51.5641C154.753 51.5641 154.846 51.5641 154.938 51.5641C157.383 51.1951 159.689 50.1802 161.58 48.6119C161.626 48.5657 161.673 48.5196 161.719 48.4735C161.765 48.4274 161.857 48.3351 161.903 48.289C162.042 48.1967 162.134 48.0583 162.272 47.9661C162.272 47.92 162.318 47.92 162.318 47.92C162.457 47.7816 162.641 47.5971 162.734 47.5048C162.734 47.4587 162.734 47.4587 162.734 47.4587C163.01 47.1819 163.287 46.859 163.518 46.5361C163.656 46.3516 163.933 45.9364 164.164 45.6135C164.256 45.429 164.21 45.1984 164.025 45.06Z" fill="white"/>
  <path d="M182.921 28.6845C182.737 28.5 182.552 28.3616 182.368 28.2232C182.321 28.1771 176.971 23.9794 171.481 27.7619C171.343 27.8542 171.158 27.7619 171.158 27.5774V19.2282C171.158 19.0437 170.974 18.8592 170.789 18.8592H163.962C163.732 18.8592 163.593 19.0437 163.593 19.2282V50.5493C163.593 50.7338 163.732 50.9183 163.962 50.9183H171.251C171.435 50.9183 171.62 50.7338 171.62 50.5493V37.1721C171.62 36.2495 171.62 35.0963 172.035 34.266C172.358 33.4818 173.465 33.0205 174.849 33.0205C175.587 33.0205 176.186 33.2051 176.648 33.528C176.924 33.7586 177.155 34.0354 177.34 34.4044C177.709 35.2347 177.755 36.2956 177.755 37.1721V50.5493C177.755 50.7338 177.939 50.9183 178.17 50.9183H185.412C185.643 50.9183 185.827 50.7338 185.827 50.5493V36.8031C185.827 33.2051 185.412 31.1754 182.921 28.6845Z" fill="white"/>
  <path d="M76.5744 77.7534H75.2367C74.5447 77.7534 73.9912 77.5688 73.6222 77.1998C73.0225 76.6002 73.0686 75.5853 73.1148 74.8473V74.6628C73.1148 74.6166 73.1148 68.62 73.1148 66.5903C73.1148 66.4058 73.2993 66.2213 73.4838 66.2213H76.0208C76.2515 66.2213 76.436 66.0368 76.436 65.8062V60.0401C76.436 59.8556 76.2515 59.6711 76.0208 59.6711H73.4838C73.2993 59.6711 73.1148 59.4866 73.1148 59.256V52.5674C73.1148 52.3829 72.9303 52.1983 72.6996 52.1983H65.9188C65.6881 52.1983 65.5036 52.3829 65.5036 52.5674V59.256C65.5036 59.4866 65.3191 59.6711 65.1346 59.6711H62.5975C62.3669 59.6711 62.2285 59.8556 62.2285 60.0401V65.8062C62.2285 66.0368 62.3669 66.2213 62.5975 66.2213H65.1346C65.3191 66.2213 65.5036 66.4058 65.5036 66.5903V78.3069C65.5036 82.1355 67.7178 84.2574 71.8232 84.4419C71.8693 84.4419 71.9154 84.4419 71.9616 84.4419C72.6535 84.4419 74.8676 84.3497 75.7441 84.3036C75.9286 84.2574 76.067 84.1191 76.067 83.9345L76.9434 78.1685C76.9895 77.9379 76.805 77.7534 76.5744 77.7534Z" fill="white"/>
  <path d="M100.968 68.4816C100.691 67.559 100.322 66.6826 99.8608 65.8062L99.6302 65.4371C99.5379 65.3449 99.4918 65.2526 99.4457 65.1142L99.3073 64.9297C99.215 64.8375 99.1689 64.6991 99.0766 64.6068C98.9844 64.4684 98.846 64.3301 98.7537 64.1917L98.7076 64.0994C98.6154 64.0072 98.5231 63.9149 98.4309 63.8226L98.3386 63.7304L98.2002 63.8688L98.3386 63.6843C98.2002 63.5459 98.0618 63.4075 97.8773 63.223L97.8312 63.1307C97.6928 63.0385 97.6006 62.9462 97.5083 62.854L97.4622 62.8078C97.3238 62.6694 97.2315 62.5772 97.0931 62.4388L96.9548 62.3465C96.7702 62.2082 96.6319 62.0698 96.4473 61.9314C96.4012 61.9314 96.3551 61.8853 96.309 61.8391H96.2628C96.0783 61.6546 95.8477 61.5162 95.617 61.3779C95.3864 61.2395 95.0635 61.0088 94.8329 60.9166C94.7867 60.8704 94.6945 60.8243 94.6483 60.7782L94.5561 60.9627L94.6022 60.7782C94.51 60.7321 94.3716 60.6859 94.2793 60.5937H94.2332C94.0025 60.5014 93.7719 60.363 93.5874 60.2708H93.4951C93.3568 60.2246 93.2645 60.1785 93.08 60.1324C93.0339 60.0863 92.9877 60.0863 92.9416 60.0401C92.8032 59.994 92.6187 59.9479 92.4803 59.9017H92.4342C92.2497 59.8556 92.0652 59.7634 91.8807 59.7172L91.7423 59.6711C91.3732 59.5789 91.0042 59.5327 90.6352 59.4866L90.4507 59.4405C90.0817 59.3943 89.7126 59.3482 89.2975 59.3482L89.1591 59.3021C88.9284 59.3021 88.7439 59.3021 88.5594 59.3021C88.3749 59.3021 88.1904 59.3021 87.9598 59.3021C87.9136 59.3021 87.8675 59.3021 87.8214 59.3482H87.7752C87.6369 59.3482 87.4985 59.3482 87.3601 59.3482H87.314C87.2678 59.3482 87.2217 59.3943 87.1756 59.3943C86.9449 59.3943 86.7604 59.4405 86.622 59.4405C86.622 59.4405 86.622 59.4405 86.5759 59.4405C86.3914 59.4866 86.1146 59.5327 85.9301 59.5789H85.8379C85.6995 59.625 85.5611 59.625 85.4227 59.6711H85.3766C85.3305 59.7172 85.3304 59.7172 85.2843 59.7172C85.0998 59.7634 84.9153 59.8095 84.7308 59.8556C84.5463 59.9479 84.3618 59.994 84.1772 60.0401C84.1311 60.0863 84.085 60.0863 84.0389 60.0863V60.1324C83.9005 60.1785 83.7621 60.2246 83.6237 60.2708H83.5776C83.5314 60.3169 83.5314 60.3169 83.4853 60.3169C83.3008 60.4092 83.1163 60.5014 82.9318 60.5475C82.7934 60.6398 82.6089 60.7321 82.4705 60.8243C82.4244 60.8243 82.3782 60.8704 82.3321 60.8704L82.286 60.9166C82.1937 60.9627 82.0553 61.0088 81.9631 61.1011L81.7786 61.1933C81.6402 61.2856 81.5018 61.3778 81.3173 61.4701C79.7951 62.5311 78.4573 63.8688 77.4887 65.4371C77.3964 65.6216 77.3041 65.76 77.2119 65.9445L77.1196 66.1291C77.0735 66.1752 77.0735 66.2213 77.0274 66.2674C77.0274 66.3136 76.9812 66.3597 76.9812 66.3597L76.9351 66.452C76.889 66.4981 76.889 66.5442 76.889 66.5903C76.7967 66.7748 76.7045 66.9132 76.6583 67.0977C76.52 67.4206 76.3816 67.6974 76.2893 68.0664C75.9203 69.1735 75.6897 70.2806 75.6435 71.4338C75.6435 71.6183 75.6435 71.8489 75.6435 72.0796C75.6435 72.3102 75.6435 72.4948 75.6435 72.7254C75.6897 73.3712 75.7358 74.017 75.8742 74.6628C75.9203 74.8473 75.9664 75.0779 76.0126 75.2624C76.1048 75.4931 76.1509 75.7698 76.2893 76.0466C76.4738 76.6001 76.6583 77.1537 76.9351 77.6611C76.9351 77.7072 76.9351 77.7072 76.9812 77.7534L77.0274 77.8456C77.0735 77.984 77.1658 78.1224 77.2119 78.2146L77.258 78.3069C77.3503 78.4453 77.3964 78.5375 77.4887 78.6759C78.4573 80.2443 79.7951 81.6281 81.3173 82.6429C81.5018 82.7813 81.6402 82.8736 81.7786 82.9658L81.9631 83.0581C82.0553 83.1042 82.1937 83.1965 82.286 83.2426H82.3321C82.3782 83.2887 82.4244 83.2887 82.4705 83.3349C82.6089 83.4271 82.7934 83.5194 82.9318 83.5655H82.9779C83.1163 83.6578 83.3008 83.75 83.4853 83.7962C83.5314 83.8423 83.5314 83.8423 83.5776 83.8423L83.6237 83.8884C83.7621 83.9345 83.9005 83.9807 84.0389 84.0268C84.085 84.0729 84.1311 84.0729 84.1772 84.0729C84.3618 84.1652 84.5463 84.2113 84.7308 84.2574C84.8692 84.3036 85.0537 84.3497 85.2843 84.4419C85.3304 84.4419 85.3305 84.4419 85.3766 84.4419H85.4227C85.5611 84.4881 85.6995 84.5342 85.8379 84.5342L86.0224 84.5803C86.1608 84.6265 86.3453 84.6726 86.4837 84.6726H86.622C86.7604 84.7187 86.9449 84.7648 87.1756 84.7648C87.2217 84.7648 87.2678 84.7648 87.314 84.7648H87.3601C87.4985 84.811 87.6369 84.811 87.7752 84.811H87.8214C87.8675 84.811 87.9136 84.811 87.9598 84.811C88.1904 84.8571 88.3749 84.8571 88.5594 84.8571C88.7439 84.8571 88.9284 84.8571 89.1591 84.811H89.2975C89.7126 84.811 90.0817 84.7648 90.4968 84.7187L90.6352 84.6726C91.0042 84.6265 91.3732 84.5342 91.7423 84.4419L91.8807 84.3958C92.0652 84.3497 92.2497 84.3036 92.4342 84.2574H92.4803C92.6187 84.2113 92.8032 84.119 92.9416 84.0729L93.1261 84.0268C93.2645 83.9807 93.3568 83.9345 93.5413 83.8884V83.8423C93.7719 83.75 94.0025 83.6578 94.2332 83.5655L94.2793 83.5194C94.3716 83.4733 94.51 83.4271 94.6022 83.381L94.6483 83.3349C94.6945 83.3349 94.7867 83.2887 94.8329 83.2426L94.879 83.1965C95.1558 83.0581 95.3864 82.9197 95.617 82.7813L95.6632 82.7352C95.8938 82.5968 96.0783 82.4584 96.309 82.3201L96.4473 82.1817C96.6319 82.0894 96.7702 81.951 96.9548 81.7665L96.8625 81.6281L97.0009 81.7665L97.1393 81.6281C97.2315 81.5359 97.3699 81.4436 97.4622 81.3514L97.5083 81.3052C97.6006 81.213 97.6928 81.1207 97.8312 80.9823L97.9234 80.8901C98.0618 80.7517 98.2002 80.6133 98.3386 80.4288L98.4309 80.3365C98.5231 80.2443 98.6154 80.152 98.7076 80.0136L98.7537 79.9214C98.7999 79.8753 98.846 79.8291 98.8921 79.7369L98.9844 79.6446C99.1228 79.4601 99.2612 79.2756 99.4457 79.0449C99.5379 78.8143 99.6302 78.6759 99.7686 78.4914L99.8608 78.3069C99.9531 78.1224 100.138 77.7534 100.276 77.4305C100.414 77.1998 100.276 76.923 99.9992 76.8769L93.4951 75.7237C93.3106 75.6776 93.1722 75.7698 93.08 75.8621C91.9268 77.3843 90.2662 78.1224 88.5133 78.1224C86.4375 78.1224 84.5463 77.0153 83.4853 75.2624C83.3469 74.9857 83.5314 74.6628 83.8543 74.6628H100.922C101.106 74.6628 101.291 74.5244 101.291 74.3399C101.429 73.6018 101.521 72.7715 101.521 72.0796C101.521 70.8341 101.337 69.6348 100.968 68.4816ZM93.4951 69.3119H84.2234C83.9927 69.3119 83.8082 69.0813 83.8543 68.8506C84.1772 67.0516 86.4375 65.6216 88.8823 65.6216C91.5116 65.6216 93.5874 67.0516 93.8642 68.8506C93.9103 69.0813 93.7258 69.3119 93.4951 69.3119Z" fill="white"/>
  <path d="M120.189 61.8391C120.004 61.6546 119.82 61.5162 119.635 61.3779C119.589 61.3317 114.238 57.1341 108.749 60.9166C108.61 61.0088 108.426 60.9166 108.426 60.7321V60.0863C108.426 59.8556 108.241 59.6711 108.057 59.6711H101.23C100.999 59.6711 100.861 59.8556 100.861 60.0863V83.7039C100.861 83.8884 100.999 84.0729 101.23 84.0729H108.518C108.703 84.0729 108.887 83.8884 108.887 83.7039V70.3267C108.887 69.4042 108.887 68.251 109.302 67.4207C109.625 66.6365 110.732 66.1752 112.116 66.1752C112.854 66.1752 113.454 66.3597 113.915 66.6826C114.192 66.9132 114.423 67.19 114.607 67.559C114.976 68.3893 115.022 69.4503 115.022 70.3267V83.7039C115.022 83.8884 115.207 84.0729 115.437 84.0729H122.68C122.91 84.0729 123.095 83.8884 123.095 83.7039V69.9577C123.095 66.3597 122.68 64.3301 120.189 61.8391Z" fill="white"/>
  <path d="M142.928 61.8391C142.744 61.6546 142.559 61.5162 142.375 61.3779C142.329 61.3317 136.978 57.1341 131.489 60.9166C131.35 61.0088 131.166 60.9166 131.166 60.7321V60.0863C131.166 59.8556 130.981 59.6711 130.797 59.6711H123.97C123.739 59.6711 123.601 59.8556 123.601 60.0863V83.7039C123.601 83.8884 123.739 84.0729 123.97 84.0729H131.258C131.442 84.0729 131.627 83.8884 131.627 83.7039V70.3267C131.627 69.4042 131.627 68.251 132.042 67.4207C132.365 66.6365 133.472 66.1752 134.856 66.1752C135.594 66.1752 136.194 66.3597 136.655 66.6826C136.932 66.9132 137.162 67.19 137.347 67.559C137.716 68.3893 137.762 69.4503 137.762 70.3267V83.7039C137.762 83.8884 137.947 84.0729 138.177 84.0729H145.419C145.65 84.0729 145.834 83.8884 145.834 83.7039V69.9577C145.834 66.3597 145.419 64.3301 142.928 61.8391Z" fill="white"/>
  <path d="M153.536 59.6711H146.709C146.479 59.6711 146.34 59.8556 146.34 60.0863V83.7039C146.34 83.8884 146.479 84.0729 146.709 84.0729H153.536C153.721 84.0729 153.905 83.8884 153.905 83.7039V60.0863C153.905 59.8556 153.721 59.6711 153.536 59.6711ZM153.536 52.0138H146.709C146.479 52.0138 146.34 52.1983 146.34 52.3829V57.3647C146.34 57.5953 146.479 57.7799 146.709 57.7799H153.536C153.721 57.7799 153.905 57.5953 153.905 57.3647V52.3829C153.905 52.1983 153.721 52.0138 153.536 52.0138Z" fill="white"/>
  <path d="M168.162 70.0961C167.608 69.8654 167.054 69.6809 166.501 69.4503C166.04 69.2658 165.624 69.0813 165.117 68.8967C162.672 67.9281 162.211 67.2361 162.073 66.7748C162.026 66.4981 162.119 66.1291 162.349 65.8523C162.718 65.4833 163.226 65.3449 163.779 65.391C164.656 65.4833 165.071 65.9445 165.255 66.4058C165.348 66.5903 165.486 66.6826 165.671 66.6826L172.267 65.3449C172.498 65.2987 172.636 65.0681 172.59 64.8836C172.221 63.223 171.16 62.162 170.791 61.8391C170.283 61.424 169.73 61.0088 169.084 60.6859C167.839 60.0401 166.363 59.5789 164.702 59.3943C161.98 59.0714 159.351 59.625 157.368 60.9166C156.676 61.3317 156.076 61.8391 155.569 62.4388C155.2 62.854 153.493 65.1142 154 67.7897C154.323 69.6348 155.707 71.2493 158.013 72.587C158.059 72.6331 158.152 72.6793 158.198 72.6793L158.244 72.7254C158.705 72.956 159.167 73.1867 159.674 73.4173C160.366 73.7402 161.012 74.0631 161.519 74.2937L161.565 74.3399C164.148 75.5392 164.656 75.9544 164.748 76.7847C164.794 77.1537 164.702 77.5227 164.425 77.7534C164.148 78.0301 163.641 78.3069 162.626 78.1685C162.165 78.1224 161.381 77.7995 160.919 77.1076C160.827 76.9692 160.643 76.8769 160.504 76.923L153.816 78.353C153.585 78.3992 153.447 78.6759 153.539 78.9066C154.277 80.5672 155.338 81.9049 156.768 82.8736C158.106 83.6116 159.766 84.119 161.657 84.3497C162.257 84.4419 162.857 84.4419 163.41 84.4419C167.608 84.4419 170.975 82.5968 172.451 79.5062C172.82 78.5837 173.051 77.6611 173.097 76.7847C173.328 72.956 169.73 70.8341 168.162 70.0961Z" fill="white"/>
</svg>